ply
format ascii 1.0
element vertex 25
property float x
property float y
property float z
property uchar diffuse_red
property uchar diffuse_green
property uchar diffuse_blue
end_header
0.892573 0.67543 -1.86889 0 255 0
1.76032 0.0878587 -2.62654 0 255 0
0.943174 0.0973322 -3.1655 0 255 0
1.39345 -5.37422e-009 0.42691 0 255 0
1.86874 6.22667e-009 0.729514 0 255 0
0.624751 0.0409624 -2.39204 255 0 255
3.33548 1.22291 -12.2315 0 255 0
2.10414 0.0387804 -0.642585 0 255 0
1.77408 -0.991033 4.62238 255 0 255
3.19486 -1.9844 -4.19969 0 255 0
2.00686 -0.0709413 1.26225 255 0 255
1.72792 0.0629383 1.76033 0 255 0
2.84996 -1.95168 -1.61544 0 255 0
1.49477 0.0137177 -0.274728 255 0 255
2.70137 -0.294701 2.13348 255 0 255
-0.0101997 0.837124 -3.71232 255 0 255
0.74966 -2.92119 -6.4715 0 255 0
1.94396 1.2688 -14.4161 0 255 0
5.43106 1.73506e-007 -27.9597 0 255 0
1.66208 -1.41826 -0.643617 0 255 0
-0.903921 0.534259 -10.1902 0 255 0
4.33893 -1.72012 4.08282 0 255 0
-3.56901 8.80737 -6.78337 255 0 255
0.888042 -1.34328 1.84072 0 255 0
-3.86111 4.67336 -12.0733 0 255 0
