ply
format ascii 1.0
element vertex 35
property float x
property float y
property float z
property uchar diffuse_red
property uchar diffuse_green
property uchar diffuse_blue
end_header
0.224599 0.777992 0.508407 0 255 0
-0.199624 0.126458 1.1301 0 255 0
1.07096 0.149629 -0.338896 0 255 0
1.64536 -0.151101 -1.02728 0 255 0
1.12326 0.369043 -0.494691 0 255 0
15.5641 2.14692 -19.2661 0 255 0
11.6338 0.807994 -8.99478 0 255 0
26.4802 1.50725 -23.2979 0 255 0
33.4762 0.795099 -36.3588 0 255 0
8.41538 2.92139 -10.8754 0 255 0
0.349731 1.31599 0.354047 0 255 0
-1.76143 -0.0595048 2.41934 0 255 0
7.16931 2.92675 -13.3856 0 255 0
1.9417 0.798618 -6.39212 0 255 0
-1.75781 -0.00289482 4.07351 0 255 0
8.1293 1.94701e-007 -15.5978 0 255 0
26.9659 -2.21538 -46.8512 255 0 255
-1.23202 0.043369 -0.616838 0 255 0
-0.23586 0.949309 0.424694 0 255 0
8.29787 -2.70044 -23.2346 0 255 0
-2.09635 0.81338 3.01688 0 255 0
-4.0249 0.512042 5.22096 0 255 0
-3.65059 0.130249 4.05239 0 255 0
-2.76094 0.0458133 -4.42533 0 255 0
-1.99129 -0.805204 -1.07277 0 255 0
3.38402 2.29246 -22.0313 255 0 255
-4.01725 0.827818 3.44757 0 255 0
6.79777 0.725589 -19.7099 0 255 0
23.6068 3.18026 -60.6604 0 255 0
3.67877 1.06674e-007 -14.3486 0 255 0
-2.50232 4.67956e-009 0.367981 0 255 0
10.7277 4.75802 -6.55286 255 0 255
0.325442 0.0937723 -2.94507 0 255 0
13.5373 2.25358 -33.7441 0 255 0
-2.53283 0.609849 2.05923 255 0 255
