ply
format ascii 1.0
element vertex 18
property float x
property float y
property float z
property uchar diffuse_red
property uchar diffuse_green
property uchar diffuse_blue
end_header
3.88638 -0.198721 -0.245396 0 255 0
4.37416 0.00182565 0.604222 0 255 0
4.45225 -0.00230263 2.45163 0 255 0
5.58787 0.859255 1.16396 0 255 0
6.09805 3.29451 -2.70352 255 0 255
2.24879 -1.56919 3.56446 255 0 255
-0.339005 -3.97519 11.4196 0 255 0
-2.53927 -1.49139 20.6144 0 255 0
-2.2346 1.49264 0.368784 255 0 255
-4.09076 -2.52752e-009 14.9042 0 255 0
-3.73515 0.0193307 14.9876 255 0 255
3.58536 -5.12005 -4.75033 0 255 0
-8.61422 2.25147 23.8266 255 0 255
-8.06416 1.76023e-007 -8.99798 255 0 255
-4.01164 -4.33198 16.1477 0 255 0
-7.81103 -2.06792 12.1899 0 255 0
16.2821 -3.65954 -63.1238 0 255 0
-5.20436 6.75759e-007 16.4196 0 255 0
